<?xml version="1.0" standalone="no"?><!DOCTYPE svg PUBLIC "-//W3C//DTD SVG 1.1//EN" "http://www.w3.org/Graphics/SVG/1.1/DTD/svg11.dtd"><svg width="200" height="200" viewBox="0 0 200 200" version="1.1" xmlns="http://www.w3.org/2000/svg" xmlns:xlink="http://www.w3.org/1999/xlink"><defs><style type="text/css"><![CDATA[
@font-face { font-family: ifont; src: url("http://at.alicdn.com/t/font_1442373896_4754455.eot?#iefix") format("embedded-opentype"), url("http://at.alicdn.com/t/font_1442373896_4754455.woff") format("woff"), url("http://at.alicdn.com/t/font_1442373896_4754455.ttf") format("truetype"), url("http://at.alicdn.com/t/font_1442373896_4754455.svg#ifont") format("svg"); }

]]></style></defs><g class="transform-group"><g transform="scale(0.1953125, 0.1953125)"><path d="M556.716946 556.652989l223.290529-163.302273 0 252.739235L556.716946 780.073478 556.716946 556.652989zM243.903497 646.089951l268.051989 133.983527L511.955486 556.652989l-268.051989-127.002532L243.903497 646.089951zM243.903497 378.036939l290.432719 133.983527 245.671259-178.744987-290.302759-90.702792L243.903497 378.036939zM958.70846 243.968477l0 536.105001c0 98.730629-79.971379 178.700985-178.700985 178.700985L243.903497 958.774463c-98.642624 0-178.61298-79.969333-178.61298-178.700985L65.290517 243.968477c0-98.642624 79.969333-178.744987 178.61298-178.744987l536.105001 0C878.73708 65.22349 958.70846 145.32483 958.70846 243.968477zM869.44546 288.599977c0-73.994248-60.119239-133.939525-134.113487-133.939525L288.667004 154.660452c-74.082252 0-134.071532 59.945277-134.071532 133.939525l0 446.797999c0 73.994248 59.989279 134.069485 134.071532 134.069485l446.664969 0c73.994248 0 134.113487-60.075237 134.113487-134.069485L869.44546 288.599977z" fill="#56abe4"></path></g></g></svg>