<?xml version="1.0" standalone="no"?><!DOCTYPE svg PUBLIC "-//W3C//DTD SVG 1.1//EN" "http://www.w3.org/Graphics/SVG/1.1/DTD/svg11.dtd"><svg width="200" height="200" viewBox="0 0 200 200" version="1.1" xmlns="http://www.w3.org/2000/svg" xmlns:xlink="http://www.w3.org/1999/xlink"><defs><style type="text/css"><![CDATA[
@font-face { font-family: ifont; src: url("http://at.alicdn.com/t/font_1442373896_4754455.eot?#iefix") format("embedded-opentype"), url("http://at.alicdn.com/t/font_1442373896_4754455.woff") format("woff"), url("http://at.alicdn.com/t/font_1442373896_4754455.ttf") format("truetype"), url("http://at.alicdn.com/t/font_1442373896_4754455.svg#ifont") format("svg"); }

]]></style></defs><g class="transform-group"><g transform="scale(0.1953125, 0.1953125)"><path d="M948.520423 66.514903c0 0-295.884894 8.898671-507.231393 213.571167 0 0-109.009739-11.123338-180.200128 20.022009 0 0-211.346499 160.178119-182.425819 235.817844 0 0 37.81935 22.246677 64.516386 20.022009 0 0 120.133078-13.348006 122.358769 20.022009 0 0 13.348006 160.182212 146.830113 166.857239 0 0 64.516386 2.224668 48.943712 66.741054 0 0-24.472368 120.133078 51.167357 144.606469 0 0 284.761556-133.482107 229.144864-360.405373C741.623259 593.768305 970.7671 346.8261 948.520423 66.514903zM619.264491 296.771077c0-55.904241 45.320185-101.223403 101.224426-101.223403s101.223403 45.320185 101.223403 101.223403-45.319162 101.223403-101.223403 101.223403S619.264491 352.675318 619.264491 296.771077zM229.942531 673.862481c0 0 15.572674 104.560404 106.786095 111.234407 0 0 71.190389 26.696012 22.246677 68.965721 0 0-88.98773 97.886401-84.538395 31.146371 0 0-24.471344-46.718021-109.009739-8.898671 0 0-48.943712 17.798365-8.898671-48.942689 0 0 31.146371-73.415057-8.898671-75.639724 0 0-55.617715-13.348006-8.898671-53.393048C138.730133 698.333826 201.020828 607.116311 229.942531 673.862481z" fill="#56abe4"></path></g></g></svg>