<?xml version="1.0" standalone="no"?><!DOCTYPE svg PUBLIC "-//W3C//DTD SVG 1.1//EN" "http://www.w3.org/Graphics/SVG/1.1/DTD/svg11.dtd"><svg width="200" height="200" viewBox="0 0 200 200" version="1.1" xmlns="http://www.w3.org/2000/svg" xmlns:xlink="http://www.w3.org/1999/xlink"><defs><style type="text/css"><![CDATA[
@font-face { font-family: ifont; src: url("http://at.alicdn.com/t/font_1442373896_4754455.eot?#iefix") format("embedded-opentype"), url("http://at.alicdn.com/t/font_1442373896_4754455.woff") format("woff"), url("http://at.alicdn.com/t/font_1442373896_4754455.ttf") format("truetype"), url("http://at.alicdn.com/t/font_1442373896_4754455.svg#ifont") format("svg"); }

]]></style></defs><g class="transform-group"><g transform="scale(0.1953125, 0.1953125)"><path d="M679.94624 266.15168c-45.06752-45.06752-104.98432-69.88416-168.71552-69.88416-63.72864 0-123.64416 24.81664-168.71168 69.88416C297.45536 311.21408 272.64 371.13088 272.64 434.86208c0 42.55872 11.34848 84.3456 32.8256 120.83584 18.76096 31.87968 44.78464 59.0656 75.71712 79.21664l0 116.38528c0 30.3168 24.66432 54.98624 54.98624 54.98624l149.83936 0c30.32192 0 54.98752-24.66816 54.98752-54.98624l0-116.19456c31.008-20.13824 57.09952-47.33184 75.91168-79.24736 21.53728-36.53376 32.91904-78.37312 32.91904-120.99584C749.82528 371.13088 725.00864 311.21408 679.94624 266.15168L679.94624 266.15168zM576.08576 760.28288 446.09024 760.28288c-6.27968 0-11.38944-5.10848-11.38944-11.3856l0-55.65568 152.77056 0 0 55.65568C587.47136 755.1744 582.36544 760.28288 576.08576 760.28288L576.08576 760.28288zM659.86304 524.0192c-15.10528 25.62944-36.69888 47.04384-62.44608 61.9392l-9.15456 5.29664 0 42.68928L433.95072 633.94432l0-42.81728-9.13024-5.30048c-25.68576-14.91328-47.22304-36.32384-62.28608-61.92256-15.50464-26.3424-23.69792-56.52352-23.69792-87.28192 0-46.048 17.93152-89.34272 50.49216-121.90464 32.56064-32.56064 75.85536-50.49216 121.90464-50.49216s89.34016 17.93152 121.9008 50.49216c32.56064 32.56064 50.496 75.85536 50.496 121.90464C683.63136 467.42528 675.4112 497.64736 659.86304 524.0192L659.86304 524.0192zM512.50944 53.76C259.15008 53.76 53.76 259.15008 53.76 512.50944c0 212.82176 144.91776 391.78752 341.4528 443.616 2.26432 0.84736 9.2672 2.02368 9.2672 2.02368 0.83456 0.06144 1.67552 0.10368 2.52672 0.10368 18.59712 0 33.67296-15.07584 33.67296-33.67296 0-18.59712-15.07584-33.67296-33.67296-33.67296-0.8512 0-2.52672 0-2.52672 0C239.70048 843.97056 119.04 692.31744 119.04 512.48 119.04 295.18848 295.18848 119.04 512.48 119.04S905.92 295.18848 905.92 512.48c0 179.25248-119.88352 330.4896-283.84 377.952l0 0.1536c-0.91392-0.07424-1.83552-0.12288-2.76736-0.12288-18.53056 0-33.55264 15.02208-33.55264 33.55264s15.02208 33.55264 33.55264 33.55264c2.528 0 4.98688-0.288 7.3536-0.81792l0.0192 0.1664c198.12096-50.75072 344.57984-230.46144 344.57984-444.40576C971.26528 259.15008 765.8752 53.76 512.50944 53.76z" fill="#56abe4"></path></g></g></svg>