<?xml version="1.0" standalone="no"?><!DOCTYPE svg PUBLIC "-//W3C//DTD SVG 1.1//EN" "http://www.w3.org/Graphics/SVG/1.1/DTD/svg11.dtd"><svg width="200" height="200" viewBox="0 0 200 200" version="1.1" xmlns="http://www.w3.org/2000/svg" xmlns:xlink="http://www.w3.org/1999/xlink"><defs><style type="text/css"><![CDATA[
@font-face { font-family: ifont; src: url("http://at.alicdn.com/t/font_1442373896_4754455.eot?#iefix") format("embedded-opentype"), url("http://at.alicdn.com/t/font_1442373896_4754455.woff") format("woff"), url("http://at.alicdn.com/t/font_1442373896_4754455.ttf") format("truetype"), url("http://at.alicdn.com/t/font_1442373896_4754455.svg#ifont") format("svg"); }

]]></style></defs><g class="transform-group"><g transform="scale(0.1953125, 0.1953125)"><path d="M957.307553 511.638773c0-245.754147-199.3687-444.972421-445.301925-444.972421-245.941412 0-445.314205 199.220321-445.314205 444.972421 0 227.016387 170.119539 414.311097 389.917524 441.564811 12.390191 2.610454 27.479865 4.131087 45.457308 4.131087 5.042853 0 9.912767-0.268106 14.611789-0.74599C760.46028 954.084651 957.307553 755.840564 957.307553 511.638773L957.307553 511.638773zM893.635395 517.934153c-1.283226-22.204721-4.217045-43.932582-8.680706-65.053622 0.397043-7.540743 0.50142-14.688537 0.301875-21.331841 5.52176 25.824155 8.435113 52.618405 8.435113 80.090083C893.691677 513.74269 893.665071 515.837398 893.635395 517.934153L893.635395 517.934153zM130.3073 511.638773c0-26.969235 2.809999-53.2856 8.137331-78.67485 16.48137 17.630542 55.334259 17.214057 64.810075-9.125845 16.951067 10.105149 39.732933 11.941983 39.732933 32.140001 0 66.646909 2.372024 138.102335 62.932308 139.207505 1.705851 0.021489 33.773198 12.149714 49.033763 51.731198 5.278213 13.680581 26.14752 0 49.03581 0 11.42726 0 0 19.247366 0 60.874439 0 41.469484 89.399099 105.314581 89.399099 105.314581-0.410346 27.451212 0.715291 49.64877 2.996241 67.38062-20.176528-0.375553-37.185924 2.298346-50.542116 6.846942C266.573823 856.025311 130.3073 699.740872 130.3073 511.638773L130.3073 511.638773zM605.971743 881.397165c-1.981121-9.68764-10.636245-14.991436-26.429952-10.840906 12.600993-53.667294 18.72855-83.733053 45.038776-106.557898 38.061874-32.999578 4.533246-69.692269-24.435529-65.369823-22.830985 3.445472-8.400321-28.264741-28.782533-30.023804-20.376073-1.702782-46.984081-42.23287-76.314083-56.183604-15.546068-7.379061-30.820959-27.167756-54.801117-28.052916-21.251-0.825808-52.30425 17.97028-52.30425 3.481288 0-46.658669-4.724605-79.953983-5.694699-93.248777-0.784876-10.682293-6.985088-3.602038 21.742187-2.908236 15.636119 0.415462 7.999185-31.404244 23.473621-32.645514 15.20019-1.203408 51.414997 14.223956 60.642149 8.079002 8.570189-5.726421 63.013149 142.895501 63.013149 24.563442 0-14.038738-7.27366-38.449707 0-51.746548 28.755927-52.54575 55.679114-95.373161 53.260018-101.640911-1.369184-3.523243-29.41903-6.436596-51.867298 1.092891-7.570419 2.529613 2.409886 14.393825-8.466835 16.928554-40.757263 9.406231-76.770478-10.994402-64.161299-30.167067 12.915148-19.650549 59.705823-8.570189 63.805188-47.991014 2.360767-22.582321 4.316306-48.737004 5.624091-68.174706 54.858422 8.579399 48.816822-71.191412-32.747845-79.728856 165.014264 1.930979 304.842917 108.495016 356.156606 256.395508-2.593058-2.363837-5.614881-3.805676-9.102309-4.1536-24.663726-61.60201-84.522022-17.023722-64.212464 37.308721-108.797915 83.634816-80.947614 141.965316-45.204551 175.3691 18.808368 17.555841 36.743856 43.964304 48.417733 62.927191-12.707416 37.059034 46.823422 22.217001 76.187193-40.666188C841.460082 746.966453 737.273185 848.180646 605.971743 881.397165L605.971743 881.397165z" fill="#56abe4"></path></g></g></svg>